<?xml version="1.0" encoding="UTF-8" standalone="no"?>
<svg width="57px" height="57px" viewBox="0 0 57 57" version="1.1" xmlns="http://www.w3.org/2000/svg" xmlns:xlink="http://www.w3.org/1999/xlink" xmlns:sketch="http://www.bohemiancoding.com/sketch/ns">
    <!-- Generator: Sketch 3.3.3 (12081) - http://www.bohemiancoding.com/sketch -->
    <title>ic-default-media-check-active</title>
    <desc>Created with Sketch.</desc>
    <defs></defs>
    <g id="Page-1" stroke="none" stroke-width="1" fill="none" fill-rule="evenodd" sketch:type="MSPage">
        <g id="ic-default-media-check-active" sketch:type="MSLayerGroup" transform="translate(4.000000, 2.000000)">
            <circle id="Oval-1" fill="#40BA61" sketch:type="MSShapeGroup" cx="24.5" cy="24.5" r="24.5"></circle>
            <path d="M38,18.9057239 C38,19.3546577 37.8434409,19.7362514 37.5303226,20.0505051 L25.3858065,32.2390572 L23.1045161,34.5286195 C22.7913978,34.8428732 22.4111828,35 21.963871,35 C21.5165591,35 21.1363441,34.8428732 20.8232258,34.5286195 L18.5419355,32.2390572 L12.4696774,26.1447811 C12.1565591,25.8305275 12,25.4489338 12,25 C12,24.5510662 12.1565591,24.1694725 12.4696774,23.8552189 L14.7509677,21.5656566 C15.064086,21.2514029 15.4443011,21.0942761 15.8916129,21.0942761 C16.3389247,21.0942761 16.7191398,21.2514029 17.0322581,21.5656566 L21.963871,26.5319865 L32.9677419,15.4713805 C33.2808602,15.1571268 33.6610753,15 34.1083871,15 C34.5556989,15 34.935914,15.1571268 35.2490323,15.4713805 L37.5303226,17.7609428 C37.8434409,18.0751964 38,18.4567901 38,18.9057239 L38,18.9057239 Z" id="Shape" fill="#FFFFFF" sketch:type="MSShapeGroup"></path>
        </g>
    </g>
</svg>